<svg width="32" height="32" viewBox="0 0 32 32" fill="none" xmlns="http://www.w3.org/2000/svg">
<circle cx="16" cy="16" r="16" fill="#2D1832"/>
<path d="M16.7071 10.2929C16.3166 9.90237 15.6834 9.90237 15.2929 10.2929L11.2929 14.2929C10.9024 14.6834 10.9024 15.3166 11.2929 15.7071C11.6834 16.0976 12.3166 16.0976 12.7071 15.7071L15 13.4142L15 21C15 21.5523 15.4477 22 16 22C16.5523 22 17 21.5523 17 21L17 13.4142L19.2929 15.7071C19.6835 16.0976 20.3166 16.0976 20.7071 15.7071C21.0977 15.3166 21.0977 14.6834 20.7071 14.2929L16.7071 10.2929Z" fill="#D2732F"/>
</svg>
